<svg viewBox="0 0 1139.17088 654.54324" xmlns="http://www.w3.org/2000/svg">
    <title>symfony developpement</title>
    <g>
        <title>Layer 1</title>
        <circle id="svg_1" fill="#f2f2f2" r="59.24334" cy="521.76476" cx="246.82682"/>
        <circle id="svg_2" fill="#5cbacc" r="59.24334" cy="513.095" cx="256.45989"/>
        <rect id="svg_3" fill="#3f3d56" height="2" width="732.99951" y="447.54324" x="304.17137"/>
        <path id="svg_4" fill="#3f3d56" d="m683.79279,18.65217l-260.1696,0l0,-5.36232l-117.971,0l0,5.36232l-261.24208,0a17.5985,17.5985 0 0 0 -17.59852,17.59851l0,356.25219a17.59856,17.59856 0 0 0 17.59852,17.59858l639.38268,0a17.59856,17.59856 0 0 0 17.59852,-17.59858l0,-356.25219a17.5985,17.5985 0 0 0 -17.59852,-17.59851z"/>
        <rect id="svg_5" fill="#5cbacc" height="353.91304" width="627.3913" y="49.75362" x="50.4058"/>
        <circle id="svg_6" fill="#5cbacc" r="6.43478" cy="33.66667" cx="363.56522"/>
        <polygon id="svg_7" opacity="0.1" points="498.374 403.667 50.406 403.667 50.406 49.754 498.374 403.667"/>
        <circle id="svg_8" fill="#f2f2f2" r="60.3068" cy="316.87641" cx="148.57375"/>
        <rect id="svg_9" fill="#3f3d56" height="12.24586" width="58.6052" y="240.62175" x="509.95272"/>
        <rect id="svg_10" fill="#3f3d56" height="5.24823" width="200.30733" y="145.27896" x="439.10165"/>
        <rect id="svg_11" fill="#3f3d56" height="5.24823" width="200.30733" y="161.89834" x="439.10165"/>
        <rect id="svg_12" fill="#3f3d56" height="5.24823" width="200.30733" y="178.51773" x="439.10165"/>
        <rect id="svg_13" fill="#3f3d56" height="5.24823" width="200.30733" y="195.13711" x="439.10165"/>
        <rect id="svg_14" fill="#3f3d56" height="5.24823" width="200.30733" y="211.7565" x="439.10165"/>
        <rect id="svg_15" fill="#f2f2f2" height="24.49173" width="24.49173" y="56.9338" x="614.91726"/>
        <path id="svg_16" fill="#3f3d56" d="m650.78014,92.79669l-29.74,0l0,-29.74l29.74,0l0,29.74zm-28.44691,-1.293l27.15387,0l0,-27.15391l-27.15387,0l0,27.15391z"/>
        <path id="svg_17" fill="#3f3d56" d="m719.00709,397.23186l-61.22931,0l0,-4.41153a0.87468,0.87468 0 0 0 -0.87471,-0.87471l-20.9929,0a0.87468,0.87468 0 0 0 -0.87471,0.87471l0,4.41153l-13.12057,0l0,-4.41153a0.87467,0.87467 0 0 0 -0.8747,-0.87471l-20.99291,0a0.87468,0.87468 0 0 0 -0.8747,0.87471l0,4.41153l-13.12057,0l0,-4.41153a0.87468,0.87468 0 0 0 -0.8747,-0.87471l-20.99287,0a0.87468,0.87468 0 0 0 -0.87471,0.87471l0,4.41153l-13.1206,0l0,-4.41153a0.87468,0.87468 0 0 0 -0.87471,-0.87471l-20.99291,0a0.87468,0.87468 0 0 0 -0.8747,0.87471l0,4.41153l-13.12057,0l0,-4.41153a0.87468,0.87468 0 0 0 -0.8747,-0.87471l-20.99291,0a0.87467,0.87467 0 0 0 -0.8747,0.87471l0,4.41153l-13.12057,0l0,-4.41153a0.87468,0.87468 0 0 0 -0.87471,-0.87471l-20.9929,0a0.87468,0.87468 0 0 0 -0.87471,0.87471l0,4.41153l-13.1206,0l0,-4.41153a0.87468,0.87468 0 0 0 -0.8747,-0.87471l-164.44442,0a0.87468,0.87468 0 0 0 -0.8747,0.87471l0,4.41153l-13.12057,0l0,-4.41153a0.87468,0.87468 0 0 0 -0.8747,-0.87471l-20.99291,0a0.87467,0.87467 0 0 0 -0.8747,0.87471l0,4.41153l-13.12057,0l0,-4.41153a0.87468,0.87468 0 0 0 -0.87471,-0.87471l-20.9929,0a0.87468,0.87468 0 0 0 -0.87471,0.87471l0,4.41153l-13.12057,0l0,-4.41153a0.87467,0.87467 0 0 0 -0.8747,-0.87471l-20.99291,0a0.87468,0.87468 0 0 0 -0.8747,0.87471l0,4.41153l-13.12053,0l0,-4.41153a0.87468,0.87468 0 0 0 -0.8747,-0.87471l-20.99295,0a0.87468,0.87468 0 0 0 -0.87471,0.87471l0,4.41153l-13.12056,0l0,-4.41153a0.87468,0.87468 0 0 0 -0.87471,-0.87471l-20.99291,0a0.87468,0.87468 0 0 0 -0.8747,0.87471l0,4.41153l-13.12057,0l0,-4.41153a0.87468,0.87468 0 0 0 -0.8747,-0.87471l-20.99291,0a0.87467,0.87467 0 0 0 -0.8747,0.87471l0,4.41153l-40.23641,0a20.99293,20.99293 0 0 0 -20.99291,20.99291l0,9.4925a20.99291,20.99291 0 0 0 20.99291,20.99285l698.01418,0a20.9929,20.9929 0 0 0 20.99291,-20.99285l0,-9.4925a20.99292,20.99292 0 0 0 -20.99291,-20.99291z"/>
        <path id="svg_18" fill="#3f3d56" d="m163.17137,354.54324a76,76 0 1 1 76,-76a76.08614,76.08614 0 0 1 -76,76zm0,-150a74,74 0 1 0 74,74a74.08385,74.08385 0 0 0 -74,-74z"/>
        <rect id="svg_19" fill="#3f3d56" height="2" width="254.99951" y="32.54324" x="586.17137"/>
        <rect id="svg_20" fill="#3f3d56" height="2" width="732.99951" y="560.54324" x="406.17137"/>
        <rect id="svg_21" fill="#3f3d56" height="2" width="254.99951" y="652.54324" x="192.67161"/>
        <rect id="svg_22" fill="#5cbacc" height="28" width="28" y="550" x="471"/>
        <path id="svg_23" fill="#3f3d56" d="m516,562l-34,0l0,-34l34,0l0,34zm-32.52174,-1.47826l31.04348,0l0,-31.04348l-31.04348,0l0,31.04348z"/>
        <rect id="svg_24" fill="#5cbacc" height="28" width="28" y="22" x="796"/>
        <path id="svg_25" fill="#3f3d56" d="m841,34l-34,0l0,-34l34,0l0,34zm-32.52174,-1.47826l31.04348,0l0,-31.04348l-31.04348,0l0,31.04348z"/>
        <rect id="svg_26" fill="#5cbacc" height="28" width="28" y="550" x="1078"/>
        <path id="svg_27" fill="#3f3d56" d="m1123,562l-34,0l0,-34l34,0l0,34zm-32.52174,-1.47826l31.04348,0l0,-31.04348l-31.04348,0l0,31.04348z"/>
        <path id="svg_28" fill="#3f3d56" d="m1057.17137,231.95822l-2.37862,0l0,-65.1616a37.71374,37.71374 0 0 0 -37.71385,-37.71377l-138.05346,0a37.71373,37.71373 0 0 0 -37.71387,37.71377l0,357.48139a37.71374,37.71374 0 0 0 37.71387,37.71378l138.05348,0a37.71374,37.71374 0 0 0 37.71385,-37.71378l0,-245.9367l2.37862,0l-0.00002,-46.38309z"/>
        <path id="svg_29" fill="#5cbacc" d="m1046.76144,169.01321l0,356.96a28.16523,28.16523 0 0 1 -28.16016,28.17l-138.71984,0a28.16511,28.16511 0 0 1 -28.16,-28.17l0,-356.96a28.163,28.163 0 0 1 28.16,-28.16l16.83,0a13.3792,13.3792 0 0 0 12.39,18.43l79.09,0a13.37908,13.37908 0 0 0 12.38995,-18.43l18.02,0a28.16308,28.16308 0 0 1 28.16005,28.16z"/>
        <rect id="svg_30" fill="#3f3d56" height="12.24586" width="41.32357" y="376.21769" x="928.57968"/>
        <rect id="svg_31" fill="#3f3d56" height="5.24823" width="141.24028" y="280.8749" x="878.62133"/>
        <rect id="svg_32" fill="#3f3d56" height="5.24823" width="141.24028" y="297.49429" x="878.62133"/>
        <rect id="svg_33" fill="#3f3d56" height="5.24823" width="141.24028" y="314.11367" x="878.62133"/>
        <rect id="svg_34" fill="#3f3d56" height="5.24823" width="141.24028" y="330.73306" x="878.62133"/>
        <rect id="svg_35" fill="#3f3d56" height="5.24823" width="141.24028" y="347.35244" x="878.62133"/>
        <rect id="svg_36" fill="#f2f2f2" height="24.49173" width="24.49173" y="211.17873" x="929.68352"/>
        <path id="svg_37" fill="#3f3d56" d="m939.0593,217.30325l0,29.74l29.74,0l0,-29.74l-29.74,0zm28.45,28.45l-27.16,0l0,-27.16l27.16,0l0,27.16z"/>
        <path id="svg_38" opacity="0.1" d="m1046.76144,487.85324l0,38.12a28.16523,28.16523 0 0 1 -28.16016,28.17l-138.71984,0a28.16511,28.16511 0 0 1 -28.16,-28.17l0,-192.21l116.87,92.33l2,1.58l21.74,17.17l2.03,1.61l52.4,41.4z"/>
        <circle id="svg_39" fill="#f2f2f2" r="43.86783" cy="498.70691" cx="937.24147"/>
        <path id="svg_40" fill="#3f3d56" d="m320.17137,654.54324a87,87 0 1 1 87,-87a87.09858,87.09858 0 0 1 -87,87zm0,-172a85,85 0 1 0 85,85a85.09629,85.09629 0 0 0 -85,-85z"/>
        <path id="svg_41" fill="#3f3d56" d="m950.17137,532.54324a55,55 0 1 1 55,-55a55.06223,55.06223 0 0 1 -55,55zm0,-108a53,53 0 1 0 53,53a53.05963,53.05963 0 0 0 -53,-53z"/>
        <g id="svg_45">
            <path d="m254.951,205.448c0,30.976 -25.109,56.087 -56.084,56.087c-30.973,0 -56.081,-25.111 -56.081,-56.087c0,-30.971 25.107,-56.079 56.081,-56.079c30.975,0 56.084,25.108 56.084,56.079z" id="svg_43"/>
            <path fill="#FFFFFF" d="m223.389,170.119c-5.697,0.195 -10.67,3.34 -14.373,7.68c-4.1,4.765 -6.824,10.411 -8.791,16.18c-3.514,-2.882 -6.223,-6.611 -11.864,-8.233c-4.359,-1.253 -8.936,-0.737 -13.146,2.399c-1.992,1.489 -3.367,3.738 -4.02,5.859c-1.692,5.498 1.778,10.396 3.354,12.151l3.447,3.691c0.709,0.725 2.422,2.613 1.584,5.319c-0.9,2.947 -4.451,4.85 -8.092,3.731c-1.627,-0.499 -3.963,-1.71 -3.439,-3.413c0.215,-0.699 0.715,-1.225 0.984,-1.821c0.244,-0.521 0.363,-0.907 0.438,-1.14c0.665,-2.169 -0.245,-4.994 -2.57,-5.713c-2.171,-0.666 -4.391,-0.138 -5.252,2.655c-0.977,3.174 0.543,8.935 8.681,11.441c9.535,2.935 17.597,-2.259 18.742,-9.026c0.721,-4.239 -1.195,-7.392 -4.701,-11.441l-2.859,-3.163c-1.73,-1.729 -2.324,-4.677 -0.533,-6.942c1.512,-1.912 3.664,-2.726 7.191,-1.768c5.15,1.396 7.443,4.969 11.271,7.851c-1.578,5.187 -2.613,10.392 -3.547,15.059l-0.574,3.481c-2.736,14.352 -4.826,22.235 -10.256,26.76c-1.094,0.779 -2.658,1.943 -5.014,2.027c-1.238,0.037 -1.637,-0.814 -1.654,-1.186c-0.027,-0.865 0.703,-1.264 1.188,-1.652c0.727,-0.396 1.824,-1.053 1.748,-3.156c-0.078,-2.484 -2.137,-4.639 -5.111,-4.541c-2.229,0.075 -5.625,2.171 -5.497,6.011c0.131,3.967 3.827,6.938 9.401,6.75c2.979,-0.102 9.633,-1.312 16.188,-9.105c7.631,-8.935 9.766,-19.175 11.372,-26.671l1.793,-9.897c0.992,0.119 2.059,0.2 3.217,0.228c9.504,0.201 14.256,-4.72 14.328,-8.302c0.049,-2.167 -1.42,-4.302 -3.479,-4.251c-1.471,0.041 -3.32,1.022 -3.762,3.057c-0.436,1.995 3.023,3.798 0.32,5.553c-1.92,1.242 -5.361,2.116 -10.209,1.407l0.881,-4.872c1.799,-9.238 4.018,-20.6 12.436,-20.878c0.615,-0.029 2.857,0.026 2.91,1.512c0.014,0.493 -0.109,0.623 -0.689,1.757c-0.592,0.884 -0.814,1.64 -0.785,2.504c0.08,2.356 1.873,3.908 4.471,3.818c3.473,-0.116 4.469,-3.496 4.412,-5.233c-0.146,-4.085 -4.449,-6.665 -10.14,-6.477z" id="svg_44"/>
        </g>
        <g id="svg_47">
            <path d="m1006.951,475.448c0,30.976 -25.109,56.087 -56.084,56.087c-30.973,0 -56.081,-25.111 -56.081,-56.087c0,-30.971 25.107,-56.079 56.081,-56.079c30.975,0 56.084,25.108 56.084,56.079z" id="svg_42"/>
            <path fill="#FFFFFF" d="m975.389,440.119c-5.697,0.195 -10.67,3.34 -14.373,7.68c-4.1,4.765 -6.824,10.411 -8.791,16.18c-3.514,-2.882 -6.223,-6.611 -11.864,-8.233c-4.359,-1.253 -8.936,-0.737 -13.146,2.399c-1.992,1.489 -3.367,3.738 -4.02,5.859c-1.692,5.498 1.778,10.396 3.354,12.151l3.447,3.691c0.709,0.725 2.422,2.613 1.584,5.319c-0.9,2.947 -4.451,4.85 -8.092,3.731c-1.627,-0.499 -3.963,-1.71 -3.439,-3.413c0.215,-0.699 0.715,-1.225 0.984,-1.821c0.244,-0.521 0.363,-0.907 0.438,-1.14c0.665,-2.169 -0.245,-4.994 -2.57,-5.713c-2.171,-0.666 -4.391,-0.138 -5.252,2.655c-0.977,3.174 0.543,8.935 8.681,11.441c9.535,2.935 17.597,-2.259 18.742,-9.026c0.721,-4.239 -1.195,-7.392 -4.701,-11.441l-2.859,-3.163c-1.73,-1.729 -2.324,-4.677 -0.533,-6.942c1.512,-1.912 3.664,-2.726 7.191,-1.768c5.15,1.396 7.443,4.969 11.271,7.851c-1.578,5.187 -2.613,10.392 -3.547,15.059l-0.574,3.481c-2.736,14.352 -4.826,22.235 -10.256,26.76c-1.094,0.779 -2.658,1.943 -5.014,2.027c-1.238,0.037 -1.637,-0.814 -1.654,-1.186c-0.027,-0.865 0.703,-1.264 1.188,-1.652c0.727,-0.396 1.824,-1.053 1.748,-3.156c-0.078,-2.484 -2.137,-4.639 -5.111,-4.541c-2.229,0.075 -5.625,2.171 -5.497,6.011c0.131,3.967 3.827,6.938 9.401,6.75c2.979,-0.102 9.633,-1.312 16.188,-9.105c7.631,-8.935 9.766,-19.175 11.372,-26.671l1.793,-9.897c0.992,0.119 2.059,0.2 3.217,0.228c9.504,0.201 14.256,-4.72 14.328,-8.302c0.049,-2.167 -1.42,-4.302 -3.479,-4.251c-1.471,0.041 -3.32,1.022 -3.762,3.057c-0.436,1.995 3.023,3.798 0.32,5.553c-1.92,1.242 -5.361,2.116 -10.209,1.407l0.881,-4.872c1.799,-9.238 4.018,-20.6 12.436,-20.878c0.615,-0.029 2.857,0.026 2.91,1.512c0.014,0.493 -0.109,0.623 -0.689,1.757c-0.592,0.884 -0.814,1.64 -0.785,2.504c0.08,2.356 1.873,3.908 4.471,3.818c3.473,-0.116 4.469,-3.496 4.412,-5.233c-0.146,-4.085 -4.449,-6.665 -10.14,-6.477z" id="svg_46"/>
        </g>
    </g>
</svg>
