<svg id="svg" version="1.1" xmlns="http://www.w3.org/2000/svg" xmlns:xlink="http://www.w3.org/1999/xlink" width="400" height="346.7860048820179" viewBox="0, 0, 400,346.7860048820179"><g id="svgg"><path id="path0" d="M290.417 10.279 C 261.381 11.258,234.688 19.193,216.304 32.309 C 204.360 40.831,193.137 55.393,183.208 75.250 C 179.612 82.441,178.160 85.761,172.766 99.126 C 159.201 132.731,147.233 151.128,133.638 159.269 C 105.203 176.299,70.985 177.658,41.917 162.914 C 30.868 157.310,23.036 150.885,16.776 142.292 C 15.644 140.738,15.044 140.030,15.433 140.708 C 17.554 144.401,22.428 150.137,26.500 153.733 C 47.358 172.152,81.872 179.461,109.750 171.364 C 110.667 171.098,112.129 170.676,113.000 170.426 C 125.873 166.741,138.548 159.386,145.472 151.583 C 146.448 150.483,147.457 149.358,147.714 149.083 C 148.312 148.445,151.278 144.493,151.924 143.474 C 152.195 143.047,152.952 141.919,153.606 140.966 C 155.298 138.503,157.699 134.588,158.733 132.609 C 159.219 131.678,160.107 130.054,160.705 129.000 C 163.160 124.677,170.249 109.544,171.948 105.000 C 172.969 102.270,175.573 95.821,177.332 91.667 C 178.089 89.879,178.952 87.817,179.250 87.083 C 183.359 76.960,192.904 60.089,198.674 52.750 C 199.394 51.833,199.988 51.021,199.992 50.945 C 200.021 50.444,207.251 42.389,209.600 40.241 C 212.120 37.937,214.336 35.973,215.167 35.307 C 217.226 33.656,225.920 28.130,227.817 27.266 C 228.037 27.165,229.650 26.382,231.400 25.525 C 235.583 23.476,243.019 20.335,243.691 20.332 C 243.815 20.332,245.042 19.955,246.417 19.494 C 253.633 17.077,268.137 13.670,271.233 13.666 C 271.609 13.665,272.367 13.589,272.917 13.497 C 274.455 13.240,280.714 12.539,284.333 12.219 C 291.941 11.546,305.293 11.835,313.155 12.843 C 314.572 13.025,315.791 13.109,315.869 13.031 C 316.105 12.795,312.856 11.369,311.664 11.186 C 306.966 10.465,297.231 10.049,290.417 10.279 M296.667 47.506 C 272.071 48.585,252.846 55.841,240.333 68.769 C 232.607 76.751,228.869 82.975,218.918 104.417 C 218.067 106.250,216.493 109.587,215.421 111.833 C 214.348 114.079,212.883 117.192,212.166 118.750 C 211.448 120.308,209.918 123.571,208.764 126.000 C 207.610 128.429,206.667 130.505,206.667 130.613 C 206.667 130.811,207.636 131.589,207.742 131.477 C 207.909 131.297,213.833 118.824,213.833 118.651 C 213.833 118.488,214.453 117.178,218.146 109.528 C 219.532 106.655,220.667 104.239,220.667 104.157 C 220.667 104.076,221.276 102.751,222.021 101.213 C 225.776 93.462,226.413 92.143,227.028 90.833 C 228.035 88.690,228.174 88.426,229.573 86.000 C 231.827 82.090,235.613 76.565,237.511 74.417 C 240.256 71.308,242.812 68.572,243.456 68.054 C 243.893 67.704,244.287 67.379,244.333 67.333 C 244.539 67.127,246.664 65.347,247.417 64.750 C 247.875 64.386,248.390 63.961,248.561 63.806 C 248.989 63.416,251.917 61.466,252.833 60.961 C 253.246 60.733,253.993 60.304,254.494 60.007 C 260.219 56.611,268.723 53.487,277.167 51.676 C 296.716 47.485,315.839 48.146,331.083 53.539 C 332.092 53.896,333.142 54.246,333.417 54.318 C 340.323 56.107,354.652 65.714,359.169 71.583 C 359.522 72.042,360.193 72.904,360.661 73.500 C 361.129 74.096,361.783 74.977,362.113 75.458 C 363.336 77.239,362.933 76.331,361.577 74.250 C 350.208 56.804,324.662 46.279,296.667 47.506 M90.510 66.185 C 58.626 67.582,32.622 82.377,27.268 102.167 C 24.945 110.754,25.909 121.039,29.752 128.670 C 30.480 130.116,30.641 130.192,30.008 128.792 C 26.383 120.779,25.995 108.720,29.109 100.833 C 33.042 90.867,41.178 83.007,54.429 76.369 C 55.719 75.723,57.219 75.045,57.762 74.862 C 58.305 74.679,59.837 74.116,61.167 73.610 C 77.717 67.313,99.030 65.888,115.083 70.005 C 125.848 72.766,137.891 79.035,145.543 85.861 C 146.163 86.414,147.097 87.215,147.621 87.641 C 148.144 88.068,149.122 88.940,149.795 89.579 C 150.786 90.520,151.049 90.694,151.181 90.495 C 151.308 90.304,150.947 89.870,149.547 88.532 C 136.385 75.946,120.729 68.398,104.026 66.584 C 101.872 66.350,95.160 65.974,94.083 66.026 C 93.808 66.040,92.200 66.111,90.510 66.185 M383.904 72.128 C 385.501 75.294,388.071 83.459,388.900 88.000 C 393.340 112.344,385.384 133.963,364.176 155.178 C 348.111 171.248,331.244 180.319,308.917 184.895 C 275.932 191.655,245.200 184.404,216.601 163.114 C 210.776 158.777,202.920 152.020,199.342 148.269 C 198.581 147.471,198.504 147.493,197.844 148.708 C 182.277 177.354,157.679 196.653,129.500 202.330 C 100.031 208.267,74.588 202.495,54.852 185.395 C 52.279 183.166,51.559 182.631,51.220 182.696 C 50.902 182.757,50.810 182.665,54.667 186.159 C 56.986 188.260,57.933 189.005,61.902 191.846 C 69.307 197.146,80.122 202.132,87.667 203.724 C 88.354 203.869,89.817 204.175,90.917 204.404 C 101.942 206.696,115.848 206.668,127.891 204.330 C 128.822 204.149,129.759 204.001,129.974 204.001 C 132.052 203.998,142.007 200.900,147.688 198.487 C 149.005 197.928,150.436 197.335,150.868 197.169 C 152.435 196.567,157.152 194.012,160.053 192.194 C 161.686 191.171,163.056 190.333,163.098 190.333 C 163.410 190.333,168.723 186.291,172.167 183.432 C 178.645 178.055,189.619 165.566,192.830 159.916 C 193.142 159.366,194.088 157.867,194.931 156.583 C 195.774 155.300,197.102 153.140,197.882 151.782 C 198.663 150.425,199.352 149.312,199.415 149.309 C 199.478 149.306,200.481 150.229,201.644 151.360 C 202.806 152.491,204.468 154.045,205.337 154.812 C 206.206 155.580,207.254 156.509,207.667 156.876 C 211.592 160.377,220.482 167.203,223.750 169.226 C 224.300 169.567,225.650 170.414,226.750 171.109 C 231.746 174.267,234.153 175.586,239.833 178.284 C 245.957 181.191,249.055 182.388,255.500 184.335 C 276.967 190.821,298.856 190.407,322.833 183.062 C 330.070 180.846,339.114 176.610,345.891 172.264 C 347.618 171.156,349.268 170.111,349.557 169.942 C 357.445 165.324,374.964 147.523,379.218 139.802 C 379.647 139.023,380.573 137.502,381.584 135.917 C 383.002 133.693,385.453 128.613,386.357 126.026 C 388.660 119.430,389.352 116.938,390.069 112.659 C 391.773 102.494,390.965 91.259,387.849 81.750 C 386.353 77.185,384.372 72.287,383.805 71.750 C 383.708 71.658,383.752 71.828,383.904 72.128 M99.565 214.333 C 94.279 215.108,91.225 220.873,93.536 225.713 C 96.695 232.330,106.619 231.382,108.442 224.289 C 109.760 219.162,105.530 213.728,100.583 214.193 C 100.492 214.201,100.033 214.264,99.565 214.333 M211.359 214.348 C 206.325 214.992,203.259 220.930,205.517 225.667 C 209.130 233.249,220.683 230.712,220.664 222.340 C 220.652 217.101,216.657 213.670,211.359 214.348 M321.852 214.349 C 313.676 215.394,312.996 228.020,321.014 229.910 C 326.598 231.226,330.917 227.885,330.917 222.250 C 330.917 216.772,327.332 213.648,321.852 214.349 M229.833 214.593 C 229.833 214.644,230.950 218.075,232.315 222.218 C 233.679 226.360,236.376 234.588,238.308 240.500 C 240.239 246.412,243.360 255.939,245.243 261.671 C 247.126 267.402,248.667 272.163,248.667 272.251 C 248.667 272.338,250.246 277.211,252.176 283.080 C 254.106 288.948,256.937 297.556,258.466 302.208 L 261.246 310.667 268.255 310.667 L 275.264 310.667 275.565 309.708 C 276.031 308.226,276.847 305.899,278.210 302.167 C 279.999 297.268,282.714 289.670,283.301 287.917 C 283.578 287.092,284.603 284.242,285.580 281.583 C 288.067 274.819,288.927 272.410,289.748 269.917 C 290.140 268.725,290.949 266.438,291.545 264.833 C 293.493 259.592,296.500 251.238,296.500 251.067 C 296.500 250.975,297.143 249.141,297.928 246.992 C 301.668 236.754,303.500 231.668,303.500 231.520 C 303.500 231.377,307.933 219.102,309.067 216.105 C 309.305 215.475,309.500 214.856,309.500 214.728 C 309.500 214.533,308.425 214.503,302.734 214.540 L 295.968 214.583 294.884 217.667 C 292.108 225.568,290.167 231.196,290.167 231.347 C 290.167 231.530,288.839 235.413,286.496 242.083 C 284.314 248.295,283.516 250.635,283.257 251.583 C 283.132 252.042,281.928 255.567,280.581 259.417 C 278.107 266.489,277.489 268.339,274.928 276.333 C 271.810 286.069,269.710 293.325,269.151 296.292 C 268.972 297.238,268.667 297.726,268.667 297.064 C 268.667 296.198,265.750 285.441,263.091 276.500 C 262.477 274.438,261.710 271.850,261.386 270.750 C 261.062 269.650,259.530 264.837,257.982 260.055 C 256.434 255.272,255.167 251.254,255.167 251.126 C 255.167 250.998,254.636 249.249,253.988 247.238 C 249.431 233.106,248.746 230.952,248.032 228.500 C 247.858 227.904,246.786 224.511,245.650 220.960 L 243.583 214.504 236.708 214.502 C 232.927 214.501,229.833 214.542,229.833 214.593 M151.740 240.023 C 147.287 240.323,141.941 242.103,138.623 244.390 C 138.004 244.817,137.448 245.167,137.388 245.167 C 136.799 245.167,132.581 249.044,131.075 250.972 C 126.645 256.639,124.425 261.922,123.218 269.667 C 122.790 272.416,122.789 280.670,123.217 283.083 C 124.515 290.405,126.668 295.475,130.344 299.863 C 130.934 300.567,131.660 301.443,131.958 301.810 C 133.393 303.578,137.618 306.571,140.590 307.925 C 148.585 311.568,159.164 311.091,166.145 306.772 C 166.980 306.256,167.705 305.833,167.757 305.833 C 168.127 305.833,172.128 302.130,172.349 301.583 C 172.386 301.492,172.792 300.903,173.250 300.276 L 174.083 299.135 174.134 303.942 C 174.189 309.276,174.024 311.578,173.390 314.287 C 173.159 315.275,172.901 316.419,172.816 316.830 C 172.304 319.316,169.481 323.549,166.951 325.622 C 160.665 330.773,148.689 331.629,138.250 327.672 C 135.053 326.460,134.853 326.374,133.405 325.591 C 131.831 324.740,131.730 324.742,131.565 325.631 C 131.501 325.971,130.823 328.116,130.057 330.398 C 128.759 334.265,128.684 334.560,128.957 334.761 C 134.289 338.685,146.350 340.923,157.223 340.007 C 174.141 338.580,184.746 328.210,186.187 311.683 C 186.280 310.620,186.433 309.037,186.528 308.167 C 186.636 307.180,186.745 295.437,186.817 277.000 C 186.882 260.729,186.981 247.304,187.038 247.167 C 187.095 247.029,187.191 245.698,187.250 244.208 L 187.359 241.500 181.775 241.500 L 176.191 241.500 176.099 242.375 C 176.048 242.856,175.926 244.975,175.828 247.083 C 175.589 252.193,175.656 251.993,174.688 250.485 C 169.906 243.038,161.806 239.345,151.740 240.023 M370.000 240.006 C 363.830 240.347,358.105 241.844,352.694 244.530 C 351.196 245.274,349.936 245.972,349.894 246.083 C 349.852 246.193,350.311 247.676,350.914 249.379 C 351.518 251.081,352.125 252.911,352.264 253.446 C 352.614 254.790,352.614 254.790,354.241 253.857 C 356.995 252.278,358.631 251.656,362.833 250.590 C 376.844 247.036,385.620 252.215,386.273 264.423 L 386.384 266.500 384.567 266.501 C 362.123 266.510,347.001 274.790,345.252 288.026 C 344.040 297.206,346.755 304.138,353.333 308.658 C 362.786 315.154,379.189 312.379,386.294 303.083 C 386.715 302.533,387.083 302.052,387.113 302.014 C 387.270 301.811,387.376 302.434,387.752 305.767 C 387.978 307.774,388.208 309.698,388.263 310.042 L 388.363 310.667 394.181 310.667 L 400.000 310.667 399.999 310.125 C 399.998 309.827,399.925 309.133,399.835 308.583 C 399.189 304.595,399.118 302.412,398.997 282.917 C 398.875 263.147,398.869 262.984,398.149 259.424 C 395.801 247.826,387.788 240.776,376.167 240.086 C 372.923 239.893,372.198 239.884,370.000 240.006 M94.500 276.083 L 94.500 310.667 100.833 310.667 L 107.167 310.667 107.167 276.083 L 107.167 241.500 100.833 241.500 L 94.500 241.500 94.500 276.083 M206.500 276.083 L 206.500 310.667 212.833 310.667 L 219.167 310.667 219.167 276.083 L 219.167 241.500 212.833 241.500 L 206.500 241.500 206.500 276.083 M317.000 276.083 L 317.000 310.667 323.333 310.667 L 329.667 310.667 329.667 276.083 L 329.667 241.500 323.333 241.500 L 317.000 241.500 317.000 276.083 M159.103 250.423 C 166.807 251.755,172.367 257.344,173.865 265.263 C 174.229 267.187,174.171 282.943,173.792 284.951 C 171.647 296.325,161.788 302.565,150.417 299.747 C 139.537 297.051,133.520 283.447,136.522 268.333 C 138.593 257.907,144.577 251.665,153.833 250.275 C 154.915 250.112,157.771 250.192,159.103 250.423 M386.667 281.213 C 386.667 287.212,386.543 288.939,385.982 290.790 C 381.978 303.997,361.927 307.047,358.312 295.000 C 356.278 288.223,359.768 280.941,366.183 278.579 C 372.164 276.377,376.711 275.627,384.708 275.525 L 386.667 275.500 386.667 281.213 M218.128 323.681 L 218.083 327.528 217.667 327.166 C 216.396 326.061,213.401 325.608,211.652 326.255 C 211.247 326.405,210.737 326.569,210.518 326.621 C 209.902 326.766,208.306 328.477,207.753 329.587 C 207.261 330.571,207.255 330.617,207.253 333.337 L 207.250 336.090 207.797 337.201 C 209.532 340.726,215.074 341.734,217.789 339.019 C 218.351 338.456,218.492 338.593,218.498 339.708 L 218.500 340.167 219.750 340.167 L 221.000 340.167 221.000 330.000 L 221.000 319.833 219.586 319.833 L 218.173 319.833 218.128 323.681 M280.667 330.000 L 280.667 340.167 282.083 340.167 L 283.500 340.167 283.500 330.000 L 283.500 319.833 282.083 319.833 L 280.667 319.833 280.667 330.000 M304.333 323.675 L 304.333 327.517 303.760 327.080 C 301.593 325.427,297.704 325.617,295.636 327.476 C 292.557 330.244,292.457 336.200,295.441 339.025 C 297.475 340.950,301.822 340.998,303.871 339.116 C 304.596 338.451,304.667 338.480,304.667 339.444 L 304.667 340.167 306.000 340.167 L 307.333 340.167 307.333 330.000 L 307.333 319.833 305.833 319.833 L 304.333 319.833 304.333 323.675 M225.550 320.917 C 224.175 321.880,224.952 324.083,226.667 324.083 C 228.234 324.083,229.030 322.181,227.924 321.076 C 227.439 320.591,226.140 320.504,225.550 320.917 M249.179 321.098 C 247.820 322.242,249.051 324.475,250.826 324.085 C 252.183 323.787,252.723 322.041,251.758 321.076 C 251.166 320.485,249.895 320.496,249.179 321.098 M382.625 320.847 C 381.360 321.584,381.801 323.823,383.266 324.097 C 385.079 324.437,386.321 322.367,385.061 321.106 C 384.586 320.632,383.240 320.488,382.625 320.847 M258.500 322.359 C 258.179 322.448,257.635 322.594,257.292 322.683 L 256.667 322.846 256.667 324.590 L 256.667 326.333 255.583 326.333 L 254.500 326.333 254.500 327.333 L 254.500 328.333 255.583 328.333 L 256.667 328.333 256.668 332.875 C 256.669 339.599,257.148 340.500,260.724 340.500 C 263.249 340.500,263.401 340.382,263.061 338.682 L 262.956 338.155 262.020 338.251 C 259.837 338.475,259.603 337.940,259.524 332.542 L 259.463 328.333 261.398 328.333 L 263.333 328.333 263.333 327.333 L 263.333 326.333 261.417 326.333 L 259.500 326.333 259.500 324.250 C 259.500 321.989,259.542 322.069,258.500 322.359 M236.986 326.010 C 231.489 326.643,229.135 335.246,233.487 338.798 C 235.861 340.735,241.220 340.520,242.058 338.453 C 242.237 338.010,242.142 339.978,241.938 340.929 C 241.325 343.780,237.627 344.944,234.294 343.333 C 233.305 342.855,233.235 342.889,232.850 344.027 C 232.430 345.273,232.476 345.349,233.971 345.866 C 236.519 346.746,240.545 346.368,242.442 345.070 C 244.827 343.437,245.167 341.890,245.167 332.655 L 245.167 326.333 243.833 326.333 L 242.500 326.333 242.500 327.105 L 242.500 327.876 241.779 327.211 C 240.678 326.196,239.005 325.777,236.986 326.010 M268.417 326.252 C 267.958 326.387,267.396 326.541,267.167 326.595 C 266.198 326.821,266.073 327.062,266.394 328.082 C 266.725 329.130,266.795 329.152,268.036 328.584 C 270.904 327.271,273.833 328.392,273.833 330.804 L 273.833 331.285 272.125 331.377 C 267.087 331.648,264.222 334.261,265.219 337.675 C 266.093 340.665,271.197 341.603,273.686 339.230 L 274.121 338.815 274.229 339.491 L 274.337 340.167 275.686 340.167 C 276.908 340.167,277.024 340.139,276.911 339.875 C 276.842 339.715,276.738 337.333,276.679 334.583 C 276.545 328.278,276.280 327.443,274.105 326.478 C 273.006 325.990,269.744 325.860,268.417 326.252 M330.667 326.364 C 330.162 326.554,329.441 326.960,329.063 327.265 C 328.279 327.899,328.167 327.862,328.167 326.972 L 328.167 326.333 326.833 326.333 L 325.500 326.333 325.500 333.250 L 325.500 340.167 326.986 340.167 L 328.472 340.167 328.529 335.625 C 328.582 331.354,328.607 331.044,328.944 330.417 C 330.224 328.038,333.155 327.493,334.552 329.375 C 335.318 330.407,335.381 330.840,335.460 335.625 L 335.535 340.167 336.934 340.167 L 338.333 340.167 338.325 335.625 C 338.313 329.612,338.046 328.259,336.642 327.090 C 335.335 326.001,332.528 325.660,330.667 326.364 M344.583 326.260 C 344.125 326.391,343.563 326.541,343.333 326.595 C 342.364 326.821,342.240 327.062,342.561 328.082 C 342.891 329.130,342.962 329.152,344.203 328.584 C 347.071 327.270,350.000 328.392,350.000 330.804 L 350.000 331.286 348.208 331.376 C 343.263 331.626,340.400 334.279,341.393 337.693 C 342.260 340.676,347.055 341.562,349.805 339.248 L 350.292 338.839 350.398 339.503 L 350.504 340.167 351.853 340.167 C 353.074 340.167,353.191 340.139,353.078 339.875 C 353.009 339.715,352.907 337.326,352.851 334.566 L 352.750 329.549 352.167 328.405 C 351.067 326.251,347.829 325.335,344.583 326.260 M361.750 326.416 C 361.200 326.640,360.513 327.080,360.223 327.394 C 359.645 328.018,359.508 327.903,359.502 326.792 L 359.500 326.333 358.224 326.333 L 356.948 326.333 357.057 328.958 C 357.117 330.402,357.166 333.515,357.166 335.875 L 357.167 340.167 358.500 340.167 L 359.833 340.167 359.833 336.273 C 359.833 331.609,359.895 331.077,360.565 329.958 C 361.844 327.823,364.679 327.661,365.678 329.667 C 366.083 330.477,366.158 331.483,366.163 336.125 L 366.167 340.167 367.570 340.167 L 368.973 340.167 369.036 335.542 C 369.104 330.532,369.139 330.320,370.052 329.355 C 372.148 327.138,374.737 328.234,375.163 331.517 C 375.251 332.195,375.325 334.419,375.328 336.458 L 375.333 340.167 376.761 340.167 L 378.188 340.167 378.136 334.875 C 378.077 328.935,378.051 328.796,376.756 327.362 C 375.033 325.454,371.190 325.518,369.147 327.488 L 368.336 328.270 367.908 327.623 C 366.892 326.088,363.961 325.514,361.750 326.416 M393.223 326.392 C 386.660 328.570,386.475 338.097,392.955 340.157 C 394.446 340.630,397.825 340.590,399.229 340.082 L 400.041 339.788 399.931 338.855 C 399.785 337.613,399.734 337.586,398.340 338.009 C 394.501 339.176,391.413 337.053,391.418 333.250 C 391.423 329.446,394.713 327.217,398.453 328.483 C 399.023 328.676,399.520 328.833,399.558 328.833 C 399.664 328.833,400.000 327.403,400.000 326.954 C 400.000 326.035,395.438 325.657,393.223 326.392 M225.167 333.250 L 225.167 340.167 226.583 340.167 L 228.000 340.167 228.000 333.250 L 228.000 326.333 226.583 326.333 L 225.167 326.333 225.167 333.250 M248.833 333.250 L 248.833 340.167 250.333 340.167 L 251.833 340.167 251.833 333.250 L 251.833 326.333 250.333 326.333 L 248.833 326.333 248.833 333.250 M309.383 326.556 C 309.866 327.815,311.214 331.078,312.849 334.947 C 313.940 337.530,314.833 339.736,314.833 339.849 C 314.833 340.643,312.453 343.180,311.033 343.900 C 310.068 344.389,310.040 344.483,310.485 345.750 C 310.849 346.787,311.113 346.846,312.525 346.204 C 314.199 345.443,317.167 342.270,317.167 341.241 C 317.167 341.114,317.463 340.427,317.826 339.714 C 318.188 339.000,319.005 337.142,319.642 335.583 C 320.278 334.025,321.369 331.371,322.066 329.685 C 322.763 327.999,323.333 326.552,323.333 326.470 C 323.333 326.388,322.612 326.343,321.730 326.369 L 320.128 326.417 318.916 329.833 C 318.250 331.712,317.453 334.016,317.147 334.953 C 316.555 336.762,316.525 336.787,316.180 335.750 C 315.930 335.001,313.738 329.396,312.970 327.542 L 312.469 326.333 310.883 326.333 C 309.629 326.333,309.316 326.380,309.383 326.556 M382.167 333.250 L 382.167 340.167 383.667 340.167 L 385.167 340.167 385.167 333.250 L 385.167 326.333 383.667 326.333 L 382.167 326.333 382.167 333.250 M215.630 328.425 C 218.541 329.639,219.159 335.463,216.586 337.426 C 213.492 339.786,209.691 337.106,210.051 332.818 C 210.333 329.449,213.017 327.335,215.630 328.425 M239.731 328.372 C 241.755 328.976,242.632 331.590,241.985 335.090 C 241.223 339.212,235.265 338.913,234.476 334.713 C 233.674 330.437,236.247 327.331,239.731 328.372 M302.083 328.483 C 304.019 329.381,304.897 332.686,304.012 335.738 C 302.907 339.546,297.226 338.926,296.481 334.917 C 295.638 330.378,298.668 326.899,302.083 328.483 M273.959 334.571 C 273.848 336.354,273.421 337.194,272.263 337.910 C 270.297 339.125,268.167 338.295,268.167 336.314 C 268.167 334.296,269.829 333.287,273.315 333.187 L 274.047 333.167 273.959 334.571 M350.126 334.578 C 349.867 338.718,344.333 340.315,344.333 336.250 C 344.333 334.301,346.041 333.285,349.482 333.187 L 350.214 333.167 350.126 334.578 " stroke="none" fill="#8c8c8b" fill-rule="evenodd"></path><path id="path1" d="M258.500 0.178 C 257.354 0.248,255.104 0.385,253.500 0.484 C 245.826 0.955,235.625 3.061,227.500 5.849 C 225.621 6.494,223.820 7.089,223.497 7.170 C 221.759 7.608,214.393 11.005,210.528 13.151 C 209.687 13.618,208.956 14.000,208.903 14.000 C 208.558 14.000,201.545 18.486,200.566 19.333 C 200.282 19.579,199.420 20.196,198.650 20.704 C 196.956 21.823,194.921 23.456,192.105 25.956 C 190.945 26.986,189.828 27.939,189.623 28.074 C 189.103 28.416,181.431 36.358,180.415 37.605 C 179.958 38.167,179.208 39.102,178.750 39.684 C 178.292 40.265,177.792 40.868,177.640 41.022 C 177.121 41.549,174.897 44.414,173.823 45.939 C 171.005 49.939,170.491 50.686,169.209 52.647 C 165.556 58.238,160.938 66.646,158.182 72.725 L 157.447 74.346 155.781 72.548 C 149.992 66.301,140.626 58.233,135.786 55.325 C 135.308 55.037,133.754 54.096,132.333 53.232 C 129.985 51.806,123.975 48.651,122.750 48.202 C 122.475 48.102,121.200 47.610,119.917 47.110 C 118.633 46.609,117.094 46.009,116.496 45.776 C 99.920 39.319,74.270 39.739,55.877 46.770 C 54.524 47.288,53.192 47.786,52.917 47.878 C 50.657 48.635,44.517 51.750,42.000 53.415 C 41.129 53.991,40.121 54.628,39.760 54.830 C 35.456 57.234,26.240 65.813,22.330 71.054 C 16.572 78.774,14.970 81.415,11.822 88.379 C 5.785 101.731,5.517 118.260,11.113 132.083 C 11.901 134.032,13.435 137.046,13.685 137.139 C 13.768 137.170,13.793 137.264,13.741 137.348 C 13.689 137.431,13.731 137.500,13.833 137.500 C 13.936 137.500,13.978 137.567,13.927 137.649 C 13.877 137.731,13.955 137.844,14.102 137.901 C 14.252 137.958,14.327 138.110,14.273 138.249 C 14.221 138.385,14.245 138.478,14.326 138.456 C 14.407 138.435,15.143 139.429,15.962 140.667 C 25.333 154.827,44.861 167.032,64.121 170.766 C 78.184 173.492,90.719 173.535,104.000 170.902 C 113.341 169.050,125.665 163.990,135.092 158.137 C 143.944 152.641,153.009 140.705,162.158 122.500 C 166.039 114.777,170.754 104.111,173.510 96.818 C 176.273 89.506,181.663 77.529,184.789 71.750 C 185.335 70.742,186.326 68.904,186.991 67.667 C 192.833 56.805,200.901 45.921,208.642 38.459 C 226.154 21.577,258.442 10.672,292.750 10.052 C 300.486 9.912,310.699 10.517,312.360 11.214 C 313.114 11.531,315.167 11.772,315.167 11.544 C 315.167 11.227,307.480 7.806,305.331 7.166 C 304.669 6.969,303.592 6.594,302.939 6.333 C 296.429 3.735,283.879 0.953,276.583 0.492 C 275.117 0.399,272.792 0.252,271.417 0.166 C 268.544 -0.015,261.560 -0.008,258.500 0.178 M293.168 26.665 C 289.366 26.871,285.970 27.166,279.583 27.845 C 273.184 28.527,262.452 31.037,255.549 33.467 C 254.285 33.912,252.725 34.450,252.083 34.663 C 249.734 35.442,244.004 38.074,240.848 39.824 C 240.061 40.261,238.817 40.934,238.083 41.321 C 229.415 45.892,218.180 55.668,212.970 63.174 C 209.903 67.593,203.084 80.566,200.359 87.167 C 199.791 88.540,197.260 94.306,196.590 95.750 C 196.037 96.940,194.326 101.055,193.781 102.504 C 192.994 104.596,191.264 108.819,190.654 110.137 C 190.386 110.716,190.167 111.222,190.167 111.262 C 190.167 111.302,189.463 112.928,188.603 114.875 C 187.742 116.823,186.833 118.942,186.583 119.583 C 185.034 123.550,176.707 139.504,173.792 144.091 C 173.265 144.920,172.833 145.652,172.833 145.717 C 172.833 145.921,170.110 149.972,168.161 152.667 C 167.133 154.087,166.116 155.526,165.901 155.864 C 165.686 156.202,165.371 156.614,165.201 156.781 C 165.032 156.947,164.336 157.758,163.655 158.582 C 155.659 168.261,147.207 174.302,132.917 180.549 C 112.840 189.325,85.965 191.498,64.667 186.065 C 63.429 185.750,61.393 185.156,60.141 184.746 C 58.889 184.336,57.754 184.000,57.619 184.000 C 57.359 184.000,53.695 182.545,51.762 181.674 C 49.822 180.800,49.858 181.652,51.809 182.792 C 52.235 183.041,53.429 183.971,54.462 184.860 C 73.271 201.029,96.003 207.213,122.635 203.406 C 148.811 199.664,171.090 186.260,187.346 164.473 C 191.081 159.468,195.818 152.195,197.803 148.417 C 198.476 147.137,198.336 147.111,200.117 148.838 C 230.758 178.530,264.178 190.925,300.500 186.068 C 327.589 182.446,348.589 171.750,366.915 152.238 C 375.506 143.091,381.405 134.188,385.296 124.500 C 391.983 107.846,391.206 87.591,383.262 71.509 C 382.654 70.277,382.195 69.167,382.243 69.042 C 382.290 68.918,382.263 68.857,382.182 68.907 C 382.101 68.957,381.990 68.882,381.936 68.740 C 381.871 68.571,381.908 68.518,382.044 68.587 C 382.157 68.644,382.104 68.573,381.926 68.429 C 381.749 68.285,381.674 68.164,381.760 68.161 C 381.846 68.158,381.804 68.064,381.667 67.952 C 381.529 67.840,381.397 67.652,381.373 67.535 C 381.349 67.417,380.945 66.705,380.476 65.952 C 380.007 65.199,379.475 64.321,379.296 64.000 C 377.320 60.475,369.733 52.236,364.915 48.385 C 364.549 48.093,363.837 47.524,363.333 47.121 C 361.076 45.316,355.642 41.441,355.053 41.215 C 354.886 41.151,353.587 40.390,352.167 39.523 C 349.750 38.048,342.507 34.333,342.048 34.333 C 341.934 34.333,340.715 33.887,339.340 33.341 C 333.132 30.880,324.360 28.511,318.988 27.847 C 309.680 26.696,300.434 26.273,293.168 26.665 M311.333 47.733 C 319.602 48.647,325.044 49.837,331.268 52.093 C 342.896 56.308,352.704 62.816,359.032 70.515 C 361.517 73.538,364.364 78.046,364.079 78.507 C 364.025 78.595,364.047 78.667,364.129 78.667 C 364.211 78.667,364.281 78.760,364.286 78.875 C 364.290 78.990,364.678 79.884,365.147 80.863 C 365.616 81.841,366.000 82.746,366.000 82.873 C 366.000 83.000,366.229 83.774,366.510 84.594 C 375.645 111.295,360.367 139.236,330.167 151.058 C 323.451 153.687,314.278 156.337,310.167 156.836 C 309.571 156.908,307.733 157.198,306.083 157.480 C 287.558 160.647,273.441 160.417,254.833 156.645 C 247.161 155.089,234.449 149.927,226.427 145.108 C 224.771 144.113,223.267 143.236,223.083 143.157 C 221.446 142.458,213.387 136.387,208.420 132.111 C 208.055 131.797,207.678 131.570,207.580 131.607 C 207.483 131.645,207.191 131.453,206.930 131.181 L 206.456 130.686 207.674 127.968 C 208.343 126.473,209.859 123.225,211.043 120.750 C 212.227 118.275,214.005 114.487,214.994 112.333 C 215.983 110.179,217.804 106.317,219.040 103.750 C 220.276 101.183,221.571 98.446,221.917 97.667 C 237.225 63.238,256.330 50.138,295.167 47.439 C 297.590 47.271,309.032 47.479,311.333 47.733 M102.417 66.262 C 120.314 68.043,136.344 75.514,149.375 88.147 C 151.351 90.063,151.529 90.341,151.094 90.821 C 150.962 90.967,150.445 92.135,149.944 93.418 C 149.443 94.701,148.307 97.475,147.419 99.583 C 146.532 101.692,145.596 103.979,145.338 104.667 C 144.496 106.913,140.603 115.128,137.715 120.750 C 134.944 126.144,129.681 133.996,126.708 137.171 C 125.981 137.948,125.130 138.877,124.818 139.237 C 122.178 142.274,111.414 149.150,108.083 149.927 C 107.808 149.991,106.608 150.375,105.417 150.780 C 92.466 155.178,74.224 155.324,60.528 151.139 C 59.000 150.672,57.300 150.161,56.750 150.002 C 54.162 149.258,49.165 146.843,44.806 144.232 C 43.828 143.646,42.983 143.167,42.929 143.167 C 42.581 143.167,38.679 139.963,36.611 137.980 C 35.112 136.543,33.757 134.890,32.046 132.413 C 31.855 132.137,31.433 131.620,31.108 131.265 C 29.449 129.455,27.272 123.585,26.433 118.667 C 23.112 99.185,33.421 83.553,56.250 73.455 C 69.049 67.793,88.049 64.833,102.417 66.262 M21.083 213.848 C 14.557 214.042,3.492 215.061,0.375 215.756 L -0.001 215.840 0.041 263.128 L 0.083 310.417 2.833 310.692 C 11.546 311.565,27.369 311.741,33.154 311.029 C 50.033 308.954,62.701 302.649,69.215 293.083 C 69.464 292.717,69.900 292.117,70.182 291.750 C 73.483 287.460,76.339 280.472,77.826 273.043 C 79.737 263.501,79.305 252.142,76.717 243.833 C 76.303 242.504,75.860 241.070,75.732 240.646 C 74.518 236.619,68.903 228.461,65.394 225.627 C 60.768 221.890,59.759 221.211,56.228 219.457 C 53.789 218.245,54.028 218.339,50.250 217.104 C 45.947 215.697,41.574 214.783,36.583 214.247 C 34.666 214.041,26.175 213.617,25.583 213.697 C 25.492 213.710,23.467 213.778,21.083 213.848 M33.083 224.246 C 40.788 224.833,46.787 226.910,53.000 231.143 C 56.668 233.641,61.101 239.292,62.591 243.367 C 66.754 254.750,66.857 266.901,62.890 278.376 C 60.999 283.844,56.606 290.175,52.863 292.823 C 47.754 296.438,43.669 298.539,40.250 299.309 C 32.882 300.970,29.970 301.256,21.928 301.113 C 17.027 301.025,14.589 300.875,13.125 300.569 L 12.667 300.474 12.667 262.830 C 12.667 242.126,12.723 225.152,12.792 225.111 C 14.159 224.286,26.629 223.754,33.083 224.246 " stroke="none" fill="#fb9304" fill-rule="evenodd"></path><path id="path2" d="M289.796 10.289 C 290.188 10.324,290.788 10.324,291.129 10.288 C 291.471 10.252,291.150 10.223,290.417 10.224 C 289.683 10.224,289.404 10.254,289.796 10.289 M299.542 10.288 C 299.885 10.324,300.448 10.324,300.792 10.288 C 301.135 10.252,300.854 10.223,300.167 10.223 C 299.479 10.223,299.198 10.252,299.542 10.288 M286.292 10.451 C 286.498 10.491,286.835 10.491,287.042 10.451 C 287.248 10.411,287.079 10.379,286.667 10.379 C 286.254 10.379,286.085 10.411,286.292 10.451 M303.292 10.451 C 303.498 10.491,303.835 10.491,304.042 10.451 C 304.248 10.411,304.079 10.379,303.667 10.379 C 303.254 10.379,303.085 10.411,303.292 10.451 M283.875 10.615 C 284.035 10.657,284.298 10.657,284.458 10.615 C 284.619 10.573,284.487 10.539,284.167 10.539 C 283.846 10.539,283.715 10.573,283.875 10.615 M305.875 10.615 C 306.035 10.657,306.298 10.657,306.458 10.615 C 306.619 10.573,306.487 10.539,306.167 10.539 C 305.846 10.539,305.715 10.573,305.875 10.615 M281.627 10.785 C 281.834 10.824,282.134 10.823,282.294 10.781 C 282.453 10.739,282.283 10.707,281.917 10.709 C 281.550 10.711,281.420 10.745,281.627 10.785 M307.960 10.785 C 308.168 10.824,308.468 10.823,308.627 10.781 C 308.786 10.739,308.617 10.707,308.250 10.709 C 307.883 10.711,307.753 10.745,307.960 10.785 M279.875 10.948 C 280.035 10.990,280.298 10.990,280.458 10.948 C 280.619 10.906,280.487 10.872,280.167 10.872 C 279.846 10.872,279.715 10.906,279.875 10.948 M309.542 10.948 C 309.702 10.990,309.965 10.990,310.125 10.948 C 310.285 10.906,310.154 10.872,309.833 10.872 C 309.512 10.872,309.381 10.906,309.542 10.948 M278.042 11.115 C 278.202 11.157,278.465 11.157,278.625 11.115 C 278.785 11.073,278.654 11.039,278.333 11.039 C 278.012 11.039,277.881 11.073,278.042 11.115 M208.910 38.375 L 208.083 39.250 208.958 38.423 C 209.440 37.968,209.833 37.574,209.833 37.548 C 209.833 37.424,209.679 37.562,208.910 38.375 M205.158 42.125 L 204.583 42.750 205.208 42.176 C 205.790 41.641,205.910 41.500,205.783 41.500 C 205.755 41.500,205.474 41.781,205.158 42.125 M203.573 43.875 L 203.083 44.417 203.625 43.927 C 204.130 43.471,204.243 43.333,204.115 43.333 C 204.086 43.333,203.842 43.577,203.573 43.875 M297.961 47.454 C 298.261 47.491,298.711 47.490,298.961 47.452 C 299.212 47.414,298.967 47.384,298.417 47.385 C 297.867 47.386,297.662 47.417,297.961 47.454 M304.375 47.453 C 304.627 47.491,305.040 47.491,305.292 47.453 C 305.544 47.415,305.337 47.383,304.833 47.383 C 304.329 47.383,304.123 47.415,304.375 47.453 M91.131 66.123 C 91.615 66.157,92.365 66.156,92.797 66.122 C 93.230 66.088,92.833 66.060,91.917 66.061 C 91.000 66.061,90.646 66.089,91.131 66.123 M96.713 66.123 C 97.152 66.157,97.827 66.157,98.213 66.122 C 98.600 66.087,98.242 66.059,97.417 66.059 C 96.592 66.060,96.275 66.088,96.713 66.123 M88.044 66.286 C 88.297 66.325,88.672 66.324,88.877 66.284 C 89.082 66.244,88.875 66.213,88.417 66.214 C 87.958 66.216,87.791 66.248,88.044 66.286 M100.292 66.284 C 100.498 66.324,100.835 66.324,101.042 66.284 C 101.248 66.245,101.079 66.212,100.667 66.212 C 100.254 66.212,100.085 66.245,100.292 66.284 M355.667 67.083 C 356.165 67.587,356.609 68.000,356.655 68.000 C 356.701 68.000,356.331 67.587,355.833 67.083 C 355.335 66.579,354.891 66.167,354.845 66.167 C 354.799 66.167,355.169 66.579,355.667 67.083 M240.830 68.125 L 239.417 69.583 240.875 68.170 C 242.229 66.858,242.409 66.667,242.288 66.667 C 242.263 66.667,241.607 67.323,240.830 68.125 M383.940 72.500 C 384.057 72.978,384.653 74.168,384.649 73.917 C 384.647 73.825,384.464 73.375,384.242 72.917 C 384.019 72.458,383.883 72.271,383.940 72.500 M37.909 85.208 L 37.250 85.917 37.958 85.258 C 38.617 84.645,38.743 84.500,38.617 84.500 C 38.590 84.500,38.271 84.819,37.909 85.208 M148.250 87.333 C 148.608 87.700,148.938 88.000,148.984 88.000 C 149.030 88.000,148.775 87.700,148.417 87.333 C 148.059 86.967,147.728 86.667,147.682 86.667 C 147.637 86.667,147.892 86.967,148.250 87.333 M389.705 94.333 C 389.705 94.654,389.740 94.785,389.782 94.625 C 389.823 94.465,389.823 94.202,389.782 94.042 C 389.740 93.881,389.705 94.013,389.705 94.333 M389.881 96.583 C 389.882 97.042,389.915 97.209,389.953 96.956 C 389.991 96.703,389.990 96.328,389.951 96.123 C 389.911 95.918,389.880 96.125,389.881 96.583 M389.879 104.500 C 389.879 104.912,389.911 105.081,389.951 104.875 C 389.991 104.669,389.991 104.331,389.951 104.125 C 389.911 103.919,389.879 104.087,389.879 104.500 M26.042 108.750 C 26.044 109.117,26.078 109.247,26.118 109.040 C 26.158 108.832,26.156 108.532,26.115 108.373 C 26.073 108.214,26.040 108.383,26.042 108.750 M26.039 114.833 C 26.039 115.154,26.073 115.285,26.115 115.125 C 26.157 114.965,26.157 114.702,26.115 114.542 C 26.073 114.381,26.039 114.513,26.039 114.833 M14.500 138.894 C 14.500 139.069,16.002 141.315,16.201 141.438 C 16.296 141.497,15.978 140.953,15.495 140.231 C 14.485 138.720,14.500 138.740,14.500 138.894 M16.667 142.167 C 16.862 142.442,17.060 142.667,17.106 142.667 C 17.152 142.667,17.029 142.442,16.833 142.167 C 16.638 141.892,16.440 141.667,16.394 141.667 C 16.348 141.667,16.471 141.892,16.667 142.167 M21.667 148.250 C 21.978 148.571,22.270 148.833,22.315 148.833 C 22.361 148.833,22.144 148.571,21.833 148.250 C 21.522 147.929,21.230 147.667,21.185 147.667 C 21.139 147.667,21.356 147.929,21.667 148.250 M201.250 150.167 C 201.794 150.717,202.277 151.167,202.323 151.167 C 202.369 151.167,201.961 150.717,201.417 150.167 C 200.872 149.617,200.390 149.167,200.344 149.167 C 200.298 149.167,200.706 149.617,201.250 150.167 M24.493 151.042 C 25.184 151.778,25.333 151.910,25.333 151.785 C 25.333 151.758,24.977 151.402,24.542 150.993 L 23.750 150.250 24.493 151.042 M367.575 151.708 L 366.917 152.417 367.625 151.758 C 368.284 151.145,368.410 151.000,368.284 151.000 C 368.257 151.000,367.938 151.319,367.575 151.708 M204.000 152.750 C 204.311 153.071,204.603 153.333,204.649 153.333 C 204.695 153.333,204.478 153.071,204.167 152.750 C 203.856 152.429,203.564 152.167,203.518 152.167 C 203.472 152.167,203.689 152.429,204.000 152.750 M78.958 172.951 C 79.165 172.991,79.502 172.991,79.708 172.951 C 79.915 172.911,79.746 172.879,79.333 172.879 C 78.921 172.879,78.752 172.911,78.958 172.951 M88.958 172.951 C 89.165 172.991,89.502 172.991,89.708 172.951 C 89.915 172.911,89.746 172.879,89.333 172.879 C 88.921 172.879,88.752 172.911,88.958 172.951 M83.958 173.118 C 84.165 173.157,84.502 173.157,84.708 173.118 C 84.915 173.078,84.746 173.045,84.333 173.045 C 83.921 173.045,83.752 173.078,83.958 173.118 M179.500 173.917 C 179.095 174.329,178.801 174.667,178.847 174.667 C 178.893 174.667,179.262 174.329,179.667 173.917 C 180.072 173.504,180.365 173.167,180.319 173.167 C 180.274 173.167,179.905 173.504,179.500 173.917 M174.240 179.208 L 173.750 179.750 174.292 179.260 C 174.797 178.804,174.910 178.667,174.781 178.667 C 174.752 178.667,174.509 178.910,174.240 179.208 M277.960 187.118 C 278.168 187.158,278.468 187.156,278.627 187.115 C 278.786 187.073,278.617 187.040,278.250 187.042 C 277.883 187.044,277.753 187.078,277.960 187.118 M291.958 187.118 C 292.165 187.157,292.502 187.157,292.708 187.118 C 292.915 187.078,292.746 187.045,292.333 187.045 C 291.921 187.045,291.752 187.078,291.958 187.118 M281.042 187.288 C 281.385 187.324,281.948 187.324,282.292 187.288 C 282.635 187.252,282.354 187.223,281.667 187.223 C 280.979 187.223,280.698 187.252,281.042 187.288 M288.208 187.288 C 288.552 187.324,289.115 187.324,289.458 187.288 C 289.802 187.252,289.521 187.223,288.833 187.223 C 288.146 187.223,287.865 187.252,288.208 187.288 M106.375 204.624 C 107.177 204.655,108.490 204.655,109.292 204.624 C 110.094 204.594,109.438 204.569,107.833 204.569 C 106.229 204.569,105.573 204.594,106.375 204.624 " stroke="none" fill="#ce8d51" fill-rule="evenodd"></path><path id="path3" d="M294.298 10.124 C 294.875 10.156,295.775 10.156,296.298 10.123 C 296.822 10.090,296.350 10.063,295.250 10.064 C 294.150 10.064,293.722 10.091,294.298 10.124 M389.879 98.833 C 389.879 99.246,389.911 99.415,389.951 99.208 C 389.991 99.002,389.991 98.665,389.951 98.458 C 389.911 98.252,389.879 98.421,389.879 98.833 M389.881 102.083 C 389.882 102.542,389.915 102.709,389.953 102.456 C 389.991 102.203,389.990 101.828,389.951 101.623 C 389.911 101.418,389.880 101.625,389.881 102.083 M363.078 156.208 L 362.083 157.250 363.125 156.255 C 363.698 155.708,364.167 155.239,364.167 155.214 C 364.167 155.090,364.002 155.241,363.078 156.208 M81.294 172.951 C 81.501 172.991,81.801 172.990,81.960 172.948 C 82.120 172.906,81.950 172.874,81.583 172.875 C 81.217 172.877,81.086 172.911,81.294 172.951 M86.708 172.948 C 86.869 172.990,87.131 172.990,87.292 172.948 C 87.452 172.906,87.321 172.872,87.000 172.872 C 86.679 172.872,86.548 172.906,86.708 172.948 " stroke="none" fill="#e09236" fill-rule="evenodd"></path><path id="path4" d="M301.542 10.282 C 301.702 10.323,301.965 10.323,302.125 10.282 C 302.285 10.240,302.154 10.205,301.833 10.205 C 301.512 10.205,301.381 10.240,301.542 10.282 M150.333 89.219 C 150.333 89.248,150.577 89.491,150.875 89.760 L 151.417 90.250 150.927 89.708 C 150.471 89.203,150.333 89.090,150.333 89.219 M389.872 103.333 C 389.872 103.654,389.906 103.785,389.948 103.625 C 389.990 103.465,389.990 103.202,389.948 103.042 C 389.906 102.881,389.872 103.013,389.872 103.333 M25.888 111.750 C 25.889 112.392,25.919 112.634,25.955 112.288 C 25.991 111.942,25.990 111.417,25.954 111.121 C 25.917 110.825,25.887 111.108,25.888 111.750 M22.833 149.385 C 22.833 149.414,23.077 149.658,23.375 149.927 L 23.917 150.417 23.427 149.875 C 22.971 149.370,22.833 149.257,22.833 149.385 M366.242 153.042 L 365.583 153.750 366.292 153.091 C 366.950 152.478,367.077 152.333,366.950 152.333 C 366.923 152.333,366.605 152.652,366.242 153.042 M364.906 154.375 L 364.417 154.917 364.958 154.427 C 365.256 154.158,365.500 153.914,365.500 153.885 C 365.500 153.757,365.362 153.870,364.906 154.375 M80.208 172.948 C 80.369 172.990,80.631 172.990,80.792 172.948 C 80.952 172.906,80.821 172.872,80.500 172.872 C 80.179 172.872,80.048 172.906,80.208 172.948 M87.794 172.951 C 88.001 172.991,88.301 172.990,88.460 172.948 C 88.620 172.906,88.450 172.874,88.083 172.875 C 87.717 172.877,87.586 172.911,87.794 172.951 M178.158 175.292 L 177.583 175.917 178.208 175.342 C 178.790 174.808,178.910 174.667,178.783 174.667 C 178.755 174.667,178.474 174.948,178.158 175.292 M175.324 178.125 L 174.750 178.750 175.375 178.176 C 175.719 177.860,176.000 177.578,176.000 177.551 C 176.000 177.423,175.859 177.543,175.324 178.125 M284.049 187.291 C 284.764 187.322,285.889 187.322,286.549 187.290 C 287.210 187.259,286.625 187.233,285.250 187.233 C 283.875 187.234,283.335 187.259,284.049 187.291 " stroke="none" fill="#d49244" fill-rule="evenodd"></path><path id="path5" d="M290.960 10.118 C 291.168 10.158,291.468 10.156,291.627 10.115 C 291.786 10.073,291.617 10.040,291.250 10.042 C 290.883 10.044,290.753 10.078,290.960 10.118 M298.958 10.118 C 299.165 10.157,299.502 10.157,299.708 10.118 C 299.915 10.078,299.746 10.045,299.333 10.045 C 298.921 10.045,298.752 10.078,298.958 10.118 M93.288 65.954 C 93.584 65.990,94.109 65.991,94.455 65.955 C 94.800 65.919,94.558 65.889,93.917 65.888 C 93.275 65.887,92.992 65.917,93.288 65.954 M95.458 65.951 C 95.665 65.991,96.002 65.991,96.208 65.951 C 96.415 65.911,96.246 65.879,95.833 65.879 C 95.421 65.879,95.252 65.911,95.458 65.951 " stroke="none" fill="#ec941f" fill-rule="evenodd"></path><path id="path6" d="" stroke="none" fill="#ec9410" fill-rule="evenodd"></path><path id="path7" d="M292.211 10.120 C 292.464 10.158,292.839 10.157,293.044 10.117 C 293.249 10.078,293.042 10.046,292.583 10.048 C 292.125 10.049,291.957 10.081,292.211 10.120 M297.544 10.120 C 297.797 10.158,298.172 10.157,298.377 10.117 C 298.582 10.078,298.375 10.046,297.917 10.048 C 297.458 10.049,297.291 10.081,297.544 10.120 M36.833 86.083 C 36.428 86.496,36.135 86.833,36.181 86.833 C 36.226 86.833,36.595 86.496,37.000 86.083 C 37.405 85.671,37.699 85.333,37.653 85.333 C 37.607 85.333,37.238 85.671,36.833 86.083 M149.417 88.333 C 149.775 88.700,150.105 89.000,150.151 89.000 C 150.197 89.000,149.941 88.700,149.583 88.333 C 149.225 87.967,148.895 87.667,148.849 87.667 C 148.803 87.667,149.059 87.967,149.417 88.333 M389.885 100.417 C 389.886 100.967,389.917 101.172,389.954 100.872 C 389.991 100.572,389.990 100.122,389.952 99.872 C 389.914 99.622,389.884 99.867,389.885 100.417 M83.208 172.957 C 83.827 172.989,84.840 172.989,85.458 172.957 C 86.077 172.925,85.571 172.899,84.333 172.899 C 83.096 172.899,82.590 172.925,83.208 172.957 " stroke="none" fill="#e49424" fill-rule="evenodd"></path><path id="path8" d="M205.240 41.875 L 204.750 42.417 205.292 41.927 C 205.797 41.471,205.910 41.333,205.781 41.333 C 205.752 41.333,205.509 41.577,205.240 41.875 M356.167 67.417 C 356.478 67.737,356.770 68.000,356.815 68.000 C 356.861 68.000,356.644 67.737,356.333 67.417 C 356.022 67.096,355.730 66.833,355.685 66.833 C 355.639 66.833,355.856 67.096,356.167 67.417 M382.345 69.583 C 382.345 69.675,382.452 69.938,382.583 70.167 C 382.714 70.396,382.822 70.508,382.822 70.417 C 382.822 70.325,382.714 70.063,382.583 69.833 C 382.452 69.604,382.345 69.492,382.345 69.583 " stroke="none" fill="#f4940c" fill-rule="evenodd"></path></g></svg>